<svg xmlns="http://www.w3.org/2000/svg" version="1.1" xmlns:xlink="http://www.w3.org/1999/xlink" xmlns:svgjs="http://svgjs.dev/svgjs" width="2000" height="1999" viewBox="0 0 2000 1999"><g transform="matrix(1,0,0,1,-0.431486880466764,-0.4312711370263287)"><svg viewBox="0 0 343 343" data-background-color="#2e024e" preserveAspectRatio="xMidYMid meet" height="1999" width="2000" xmlns="http://www.w3.org/2000/svg" xmlns:xlink="http://www.w3.org/1999/xlink"><g id="tight-bounds" transform="matrix(1,0,0,1,0.0740000000000407,0.07400000000001228)"><svg viewBox="0 0 342.85155851775386 342.85155851775386" height="342.85155851775386" width="342.85155851775386"><g><svg></svg></g><g><svg viewBox="0 0 342.85155851775386 342.85155851775386" height="342.85155851775386" width="342.85155851775386"><g><path d="M0 171.426c0-94.676 76.75-171.426 171.426-171.426 94.676 0 171.426 76.75 171.426 171.426 0 94.676-76.75 171.426-171.426 171.426-94.676 0-171.426-76.75-171.426-171.426zM171.426 339.533c92.843 0 168.107-75.264 168.107-168.107 0-92.843-75.264-168.107-168.107-168.107-92.843 0-168.107 75.264-168.107 168.107 0 92.843 75.264 168.107 168.107 168.107z" data-fill-palette-color="tertiary" fill="#d579ff" stroke="transparent"></path><ellipse rx="164.56874808852186" ry="164.56874808852186" cx="171.42577925887693" cy="171.42577925887693" fill="#d579ff" stroke="transparent" stroke-width="0" fill-opacity="1" data-fill-palette-color="tertiary"></ellipse></g><g transform="matrix(1,0,0,1,64.84655864529837,123.25274976473473)"><svg viewBox="0 0 213.1584412271571 96.3460589882844" height="96.3460589882844" width="213.1584412271571"><g><svg viewBox="0 0 213.1584412271571 96.3460589882844" height="96.3460589882844" width="213.1584412271571"><g><svg viewBox="0 0 213.1584412271571 96.3460589882844" height="96.3460589882844" width="213.1584412271571"><g transform="matrix(1,0,0,1,0,59.54572966694904)"><svg viewBox="0 0 213.1584412271571 36.80032932133536" height="36.80032932133536" width="213.1584412271571"><g id="textblocktransform"><svg viewBox="0 0 213.1584412271571 36.80032932133536" height="36.80032932133536" width="213.1584412271571" id="textblock"><g><svg viewBox="0 0 213.1584412271571 36.80032932133536" height="36.80032932133536" width="213.1584412271571"><g transform="matrix(1,0,0,1,0,0)"><svg width="213.1584412271571" viewBox="1.9499999999999997 -35.8 210.53 36.349999999999994" height="36.80032932133536" data-palette-color="#2e024e"><path d="M25.15-11.8L25.15-11.65 6.2-11.65Q6.25-8.35 7.6-6.4L7.6-6.4Q9.75-3.25 13.8-3.25L13.8-3.25Q18.8-3.25 20.55-8L20.55-8 24.65-8Q23.85-3.95 20.95-1.7 18.05 0.55 13.65 0.55L13.65 0.55Q7.8 0.55 4.7-3.45L4.7-3.45Q1.95-6.95 1.95-12.7L1.95-12.7Q1.95-19.35 5.55-23.05L5.55-23.05Q8.7-26.25 13.7-26.25L13.7-26.25Q17.35-26.25 20.13-24.5 22.9-22.75 24.1-19.7L24.1-19.7Q25.15-17.1 25.15-11.8L25.15-11.8ZM6.35-15L20.75-15Q20.75-18.35 18.78-20.43 16.8-22.5 13.7-22.5L13.7-22.5Q10.55-22.5 8.58-20.48 6.6-18.45 6.35-15L6.35-15ZM49-18.65L49-18.65 44.5-18.65Q44.3-22.5 39.35-22.5L39.35-22.5Q36.8-22.5 35.32-21.53 33.85-20.55 33.85-18.9L33.85-18.9Q33.85-16.4 38.6-15.3L38.6-15.3 42.55-14.4Q46.4-13.5 48.1-11.85 49.8-10.2 49.8-7.35L49.8-7.35Q49.8-3.7 46.95-1.58 44.1 0.55 39.25 0.55L39.25 0.55Q33.95 0.55 31.2-1.95L31.2-1.95Q28.9-4 28.75-7.4L28.75-7.4 33.4-7.4Q33.8-5.65 34.5-4.85L34.5-4.85Q35.85-3.25 39.55-3.25L39.55-3.25Q42.3-3.25 43.92-4.28 45.55-5.3 45.55-7L45.55-7Q45.55-9.55 41.6-10.5L41.6-10.5 37.75-11.4Q33.35-12.45 31.6-13.9L31.6-13.9Q29.6-15.55 29.6-18.65L29.6-18.65Q29.6-22.15 32.27-24.2 34.95-26.25 39.45-26.25L39.45-26.25Q44.15-26.25 46.75-23.9L46.75-23.9Q49-21.85 49-18.65ZM54.7-35.8L58.74-35.8 58.74-14.8 69.64-25.7 74.94-25.7 66-16.85 76.5 0 71.44 0 62.74-13.95 58.74-10.05 58.74 0 54.7 0 54.7-35.8ZM89.89-26.25L89.89-26.25Q95.69-26.25 98.74-22.2L98.74-22.2Q101.44-18.7 101.44-12.7L101.44-12.7Q101.44-6 97.94-2.5L97.94-2.5Q94.94 0.55 89.84 0.55L89.84 0.55Q83.94 0.55 80.84-3.4L80.84-3.4Q78.14-6.85 78.14-12.7L78.14-12.7Q78.14-19.5 81.69-23.15L81.69-23.15Q84.74-26.25 89.89-26.25ZM89.89-22.5L89.89-22.5Q86.39-22.5 84.39-19.88 82.39-17.25 82.39-12.7L82.39-12.7Q82.39-7.95 84.64-5.45L84.64-5.45Q86.59-3.25 89.84-3.25L89.84-3.25Q93.29-3.25 95.22-5.75 97.14-8.25 97.14-12.7L97.14-12.7Q97.14-17.6 94.94-20.2L94.94-20.2Q93.04-22.5 89.89-22.5ZM107.04-35.8L111.14-35.8 111.14 0 107.04 0 107.04-35.8ZM149.34-25.7L141.79 0 137.14 0 131.89-20.2 126.94 0 122.34 0 114.89-25.7 119.39-25.7 124.69-5.7 129.59-25.7 134.59-25.7 139.64-5.7 144.74-25.7 149.34-25.7ZM175.19-11.8L175.19-11.65 156.24-11.65Q156.29-8.35 157.64-6.4L157.64-6.4Q159.79-3.25 163.84-3.25L163.84-3.25Q168.84-3.25 170.59-8L170.59-8 174.69-8Q173.89-3.95 170.99-1.7 168.09 0.55 163.69 0.55L163.69 0.55Q157.84 0.55 154.74-3.45L154.74-3.45Q151.99-6.95 151.99-12.7L151.99-12.7Q151.99-19.35 155.59-23.05L155.59-23.05Q158.74-26.25 163.74-26.25L163.74-26.25Q167.39-26.25 170.16-24.5 172.94-22.75 174.14-19.7L174.14-19.7Q175.19-17.1 175.19-11.8L175.19-11.8ZM156.39-15L170.79-15Q170.79-18.35 168.81-20.43 166.84-22.5 163.74-22.5L163.74-22.5Q160.59-22.5 158.61-20.48 156.64-18.45 156.39-15L156.39-15ZM180.78 0L180.78-25.7 184.58-25.7 184.58-21.35Q187.68-26.25 193.08-26.25L193.08-26.25Q196.83-26.25 199.03-24.38 201.23-22.5 201.23-19.35L201.23-19.35 201.23 0 197.18 0 197.18-17.7Q197.18-20 195.76-21.35 194.33-22.7 191.88-22.7L191.88-22.7Q188.68-22.7 186.78-20.35 184.88-18 184.88-14.1L184.88-14.1 184.88 0 180.78 0ZM207.88-25.7L211.93-25.7 211.93 0 207.88 0 207.88-25.7ZM209.98-35.75L209.98-35.75Q211.03-35.75 211.76-35.02 212.48-34.3 212.48-33.3L212.48-33.3Q212.48-32.25 211.76-31.53 211.03-30.8 209.98-30.8L209.98-30.8Q208.98-30.8 208.26-31.53 207.53-32.25 207.53-33.3L207.53-33.3Q207.53-34.3 208.26-35.02 208.98-35.75 209.98-35.75Z" opacity="1" transform="matrix(1,0,0,1,0,0)" fill="#2e024e" class="wordmark-text-0" data-fill-palette-color="quaternary" id="text-0"></path></svg></g></svg></g></svg></g></svg></g><g transform="matrix(1,0,0,1,81.15019305253583,0)"><svg viewBox="0 0 50.858055122085474 50.858055122085474" height="50.858055122085474" width="50.858055122085474"><g><svg xmlns="http://www.w3.org/2000/svg" xmlns:xlink="http://www.w3.org/1999/xlink" version="1.1" x="0" y="0" viewBox="0.7 0.7 18.6 18.6" style="enable-background:new 0 0 20 20;" xml:space="preserve" height="50.858055122085474" width="50.858055122085474" class="icon-icon-0" data-fill-palette-color="quaternary" id="icon-0"><g fill="#2e024e" data-fill-palette-color="quaternary"><path d="M8.1 15.6H17.4V13.7H19.3V0.7H0.7V13.8H8.2V15.6zM15.6 13.7H10V12.8C10 12.3 10.4 11.9 10.9 11.9H14.6C15.1 11.9 15.5 12.3 15.5 12.8V13.7zM2.5 2.5H17.4V11.8H17.2C16.8 10.7 15.8 9.9 14.6 9.9H10.9C9.7 9.9 8.7 10.7 8.3 11.8H2.5z" fill="#2e024e" data-fill-palette-color="quaternary"></path><path d="M16.5 16.5C15 16.5 13.7 17.8 13.7 19.3H15.6C15.6 18.8 16 18.4 16.5 18.4S17.4 18.8 17.4 19.3H19.3C19.3 17.8 18.1 16.5 16.5 16.5" fill="#2e024e" data-fill-palette-color="quaternary"></path><path d="M12.8 10C14.3 10 15.6 8.7 15.6 7.2S14.3 4.4 12.8 4.4 10 5.7 10 7.2 11.3 10 12.8 10M12.8 6.3C13.3 6.3 13.7 6.7 13.7 7.2S13.3 8.1 12.8 8.1 11.9 7.7 11.9 7.2 12.3 6.3 12.8 6.3" fill="#2e024e" data-fill-palette-color="quaternary"></path><path d="M10 16.5C8.5 16.5 7.2 17.8 7.2 19.3H9.1C9.1 18.8 9.5 18.4 10 18.4S10.9 18.8 10.9 19.3H12.8C12.8 17.8 11.5 16.5 10 16.5" fill="#2e024e" data-fill-palette-color="quaternary"></path><path d="M3.5 16.5C2 16.5 0.7 17.8 0.7 19.3H2.6C2.6 18.8 3 18.4 3.5 18.4S4.4 18.8 4.4 19.3H6.3C6.3 17.8 5 16.5 3.5 16.5" fill="#2e024e" data-fill-palette-color="quaternary"></path></g></svg></g></svg></g><g></g></svg></g></svg></g></svg></g></svg></g><defs></defs></svg><rect width="342.85155851775386" height="342.85155851775386" fill="none" stroke="none" visibility="hidden"></rect></g></svg></g></svg>